<?xml version="1.0" encoding="UTF-8"?>
<svg width="440px" height="338px" viewBox="0 0 440 338" version="1.1" xmlns="http://www.w3.org/2000/svg" xmlns:xlink="http://www.w3.org/1999/xlink">
    <title>Image</title>
    <g id="Business-Assistant-Flow" stroke="none" stroke-width="1" fill="none" fill-rule="evenodd">
        <g id="Landing/-Default" transform="translate(-527.000000, -104.000000)">
            <g id="Header" transform="translate(57.000000, 120.000000)">
                <g id="Image" transform="translate(477.000000, 8.000000)">
                    <g id="Group-3" transform="translate(216.000000, 156.500000) scale(-1, 1) translate(-216.000000, -156.500000) ">
                        <g id="Humaaan" transform="translate(323.500000, 156.810910) scale(-1, 1) translate(-323.500000, -156.810910) translate(215.000000, 0.810910)">
                            <g id="Group" transform="translate(43.381259, 6.875989)">
                                <g id="Head/Front" transform="translate(49.051857, 37.416069) rotate(-8.000000) translate(-49.051857, -37.416069) ">
                                    <g id="Head" transform="translate(38.952946, 22.305733)" fill="#B28B67">
                                        <path d="M27.5147315,6.57222815 C31.6948231,14.344065 31.1981196,34.0579738 25.7957236,35.4470178 C23.6412296,36.0009733 19.0514876,34.6439812 14.3802288,31.8354372 L17.3124203,52.5264045 L0,52.5264045 L5.95897786,24.8158237 C2.63561841,20.9242309 0.38641908,16.1551915 0.762306501,10.8114119 C1.84545367,-4.58708095 23.3346399,-1.19960872 27.5147315,6.57222815 Z" id="Head-[skin]"></path>
                                    </g>
                                    <path d="M59.6293819,20.4133267 C57.263754,19.6937869 53.8296933,19.449768 52.3850861,19.6148447 C53.2068445,17.6509182 53.5329304,15.4628678 53.2670917,13.3324145 C53.008708,11.2622843 52.0813652,9.49962851 51.2237125,7.65257823 C50.8283783,6.80120892 50.3803623,5.95447987 49.7123971,5.30327922 C49.0319517,4.63983992 48.1705992,4.20191661 47.2673883,3.9929895 C46.3430827,3.77913212 45.3765874,3.79693907 44.450846,3.99101739 C44.0413197,4.07686196 43.6738726,4.2636319 43.2722431,4.36745742 C42.8609497,4.47383508 42.6614327,4.21705542 42.3629026,3.95899969 C41.6434705,3.3372066 40.5887858,3.03025427 39.678617,2.92039642 C38.6574519,2.79719787 37.5978524,2.95084805 36.6239574,3.28569986 C35.6760168,3.61167721 34.765351,4.14101337 34.0799909,4.91216441 C33.7748341,5.25542667 33.4978407,5.64613546 33.317817,6.07750442 C33.2439852,6.25452984 33.2317811,6.35939942 33.0546842,6.42424687 C32.8908958,6.48428006 32.6993307,6.48602015 32.5302962,6.54315319 C30.8958358,7.09534258 29.4983881,8.3550536 28.7374843,9.97246967 C28.2935548,10.9160639 28.0832694,12.5773998 28.140866,14.4394844 C28.1984625,16.3015689 29.8840585,21.160279 31.460591,22.9325053 C32.867813,24.5143654 34.936263,25.558247 36.9324827,26.0151953 C35.6074863,27.5258857 34.7254807,29.4136541 34.0732538,31.3335563 C33.3648109,33.4190573 32.9263483,35.5859946 32.7644374,37.7938821 C32.6106442,39.8916217 32.5963969,42.1100077 33.0894188,44.162969 C33.5506329,46.0828131 34.5369528,47.6577709 36.1835069,48.6569321 C36.9377288,49.1146344 37.7492159,49.4584767 38.5653969,49.7727375 C39.3697604,50.0824159 40.1765536,50.38351 41.0191307,50.5572872 C42.6137761,50.8860487 44.4511773,50.8296117 45.6795352,49.5635203 C46.1222499,49.107094 46.6091422,48.5335595 46.9321356,47.9759758 C47.0482675,47.7754592 47.1182889,47.6443142 46.9771968,47.4483218 C46.8081623,47.2135833 46.5347582,47.0337157 46.3176253,46.8500779 C45.0793827,45.8030642 44.3129015,44.4053059 44.1196797,42.7442135 C43.9236417,41.0588178 44.3775112,38.883412 46.0202549,38.1478749 C48.0480616,37.2398946 50.2812388,38.282094 52.0835741,39.2535877 C52.8495583,36.5569082 54.4223357,34.128841 56.8881632,32.8918672 C59.6161846,31.5234004 62.7465535,31.3632539 65.5500082,30.1890974 C66.2805399,29.8831311 67.024601,29.5358086 67.5624632,28.9123915 C67.7872166,28.6518416 68.0509016,28.3138576 68.1406374,27.9692613 C68.2585363,27.5166052 67.9658598,27.137091 67.739781,26.7842002 C66.541022,24.9130787 61.9950099,21.1328665 59.6293819,20.4133267 Z" id="hair" fill="#191847"></path>
                                </g>
                            </g>
                            <g id="Bottom/Skinny-Jeans-1" transform="translate(0.000000, 139.419400)">
                                <polygon id="[skin]-Leg" fill="#915B3C" points="93.7756098 0 147.376604 89.3862038 187.561928 164.954705 196.21749 164.954705 128.886416 3.66273023e-13"></polygon>
                                <g id="Right-[shoe]" transform="translate(180.337711, 143.188418)" fill="#E4E4E4">
                                    <path d="M1.81595376,18.5902162 C1.08621848,20.5831303 0.721350844,22.0868274 0.721350844,23.1013076 C0.721350844,24.3988437 0.938054884,26.2922717 1.37146296,28.7815915 C2.88048461,28.7815915 16.4423162,28.7815915 42.0569578,28.7815915 C43.1142296,25.2950667 42.503911,23.4128041 40.226002,23.1348038 C37.9480931,22.8568035 36.0557954,22.6057915 34.549109,22.3817678 L15.7779159,14.0344861 C15.3386054,13.839131 14.8241073,14.0368959 14.6287522,14.4762064 C14.6256249,14.483239 14.622591,14.4903128 14.6196513,14.4974259 L13.4627245,17.2967975 L13.4627245,17.2967975 C11.3539766,18.2782189 9.64039999,18.7689296 8.32199468,18.7689296 C7.30315875,18.7689296 5.91510428,18.3785417 4.15783127,17.5977658 L4.15783143,17.5977654 C3.27908809,17.20733 2.25021541,17.6031817 1.85977998,18.4819251 C1.84396399,18.5175217 1.82934703,18.5536391 1.81595376,18.5902162 Z" id="shoe"></path>
                                </g>
                                <path d="M176.40134,152.853916 L193.09344,147.817137 C185.780176,126.009315 176.816733,102.010606 166.203111,75.8210107 C155.589489,49.6314153 144.190853,24.3577451 132.007205,2.04505508e-14 L84.8626514,2.04505508e-14 C98.408249,30.8114291 112.768399,58.8075675 127.943101,83.9884153 C143.117803,109.169263 159.27055,132.12443 176.40134,152.853916 Z" id="Pant" fill="#DB2721"></path>
                                <path d="M90.2529852,2.04505508e-14 C85.1940581,31.4109258 75.4367729,71.5420196 74.5159483,72.780477 C73.9020652,73.6061154 51.8021167,80.9929808 8.21610269,94.9410734 L10.0858086,102.554522 C62.062028,95.0740701 89.449063,89.2704276 92.2469136,85.1435946 C96.4436894,78.9533453 117.398758,30.0502387 125.515047,2.04505508e-14 L90.2529852,2.04505508e-14 Z" id="[skin]-Leg" fill="#915B3C"></path>
                                <path d="M23.537323,88.3598292 L26.8306063,100.621839 C65.7057901,104.022875 89.5254739,101.565413 98.2896576,93.2494541 C107.053841,84.9334954 117.042424,53.850344 128.255405,-8.18022031e-14 L83.300258,-8.18022031e-14 C76.1959772,44.0961858 72.2242218,67.0698333 71.384992,68.9209423 C70.5457621,70.7720514 54.5965391,77.2516803 23.537323,88.3598292 Z" id="Pant" fill="#FF4133"></path>
                                <g id="Group" transform="translate(-4.328105, 96.418332)" fill="#E4E4E4">
                                    <g id="Left-[shoe]" transform="translate(22.001201, 14.390796) rotate(80.000000) translate(-22.001201, -14.390796) ">
                                        <path d="M1.81595376,18.5902162 C1.08621848,20.5831303 0.721350844,22.0868274 0.721350844,23.1013076 C0.721350844,24.3988437 0.938054884,26.2922717 1.37146296,28.7815915 C2.88048461,28.7815915 16.4423162,28.7815915 42.0569578,28.7815915 C43.1142296,25.2950667 42.503911,23.4128041 40.226002,23.1348038 C37.9480931,22.8568035 36.0557954,22.6057915 34.549109,22.3817678 L15.7779159,14.0344861 C15.3386054,13.839131 14.8241073,14.0368959 14.6287522,14.4762064 C14.6256249,14.483239 14.622591,14.4903128 14.6196513,14.4974259 L13.4627245,17.2967975 L13.4627245,17.2967975 C11.3539766,18.2782189 9.64039999,18.7689296 8.32199468,18.7689296 C7.30315875,18.7689296 5.91510428,18.3785417 4.15783127,17.5977658 L4.15783143,17.5977654 C3.27908809,17.20733 2.25021541,17.6031817 1.85977998,18.4819251 C1.84396399,18.5175217 1.82934703,18.5536391 1.81595376,18.5902162 Z" id="shoe"></path>
                                    </g>
                                </g>
                            </g>
                            <g id="Group" transform="translate(12.461419, 65.013442)">
                                <g id="Body/Long-Sleeve-1" transform="translate(92.332908, 67.276970) rotate(-8.000000) translate(-92.332908, -67.276970) ">
                                    <path d="M172.082847,33.3922461 C175.208311,32.750415 182.836677,27.0911686 184.151082,28.2402095 C186.09566,29.9401413 184.361755,35.1599174 182.318803,37.7564764 C178.500527,42.6094421 175.33916,44.2690099 167.52535,46.442224 C163.439886,47.5784925 159.022778,49.8560449 154.274024,53.2748811 L153.64773,42.2656518 L164.645822,36.2390505 C166.18901,30.3817837 168.033703,27.4347948 170.179902,27.3980836 C171.828628,26.6328736 168.957382,34.0340771 172.082847,33.3922461 Z M153.153461,8.3045735 C151.134025,11.8798746 149.17108,15.7311483 150.199904,16.8326212 C151.228727,17.9340941 153.79419,16.395385 155.02156,18.2254916 C155.839807,19.4455626 151.456917,21.3729314 141.872888,24.0075979 L123.679781,40.6235199 L114.433684,30.7245163 L139.471614,17.0457694 C143.635268,12.1138281 147.737628,8.28348469 151.778692,5.55473915 C153.013511,5.04051662 155.172898,4.72927241 153.153461,8.3045735 Z" id="Arms-[skin]" fill="#997659"></path>
                                    <path d="M103.049517,24.9973075 C111.725897,26.2779449 123.565632,26.282538 137.12628,20.4309848 L140.26115,31.9643674 C130.426983,39.0335223 117.37827,44.0547257 106.972653,42.1065028 C98.7724538,40.5711957 96.1368173,29.9664061 103.049517,24.9973075 Z" id="Sleeve" fill="#1F28CF" transform="translate(119.671464, 31.480242) rotate(-9.000000) translate(-119.671464, -31.480242) "></path>
                                    <path d="M102.824054,-3.46583256e-14 C103.928387,14.1523857 109.486719,29.7495148 114.048399,45.1583681 C123.357756,47.4755231 138.970956,44.7442849 160.887159,36.9652203 C166.323071,48.1829161 168.835958,56.1802729 168.425817,60.9572907 C149.623516,70.754227 133.50863,75.121557 120.232514,75.4089717 C120.659242,83.2638982 119.700659,90.7414719 116.479358,97.5738881 C109.857896,111.618081 71.0855607,98.6115924 58.0491133,101.171587 C49.8853066,74.7251569 65.6702738,63.9774346 65.6829746,47.055467 C65.6968834,28.5241094 80.6141381,-3.46583256e-14 82.8089133,-3.46583256e-14 L82.8089133,-3.46583256e-14 Z" id="Clothes" fill="#2B44FF"></path>
                                </g>
                            </g>
                        </g>
                        <g id="Humaaan">
                            <g id="Group" transform="translate(69.975078, 6.338742)">
                                <g id="Head/Front" transform="translate(49.051857, 37.416069) rotate(7.000000) translate(-49.051857, -37.416069) ">
                                    <g id="Head" transform="translate(38.952946, 22.305733)" fill="#B28B67">
                                        <path d="M27.5147315,6.57222815 C31.6948231,14.344065 31.1981196,34.0579738 25.7957236,35.4470178 C23.6412296,36.0009733 19.0514876,34.6439812 14.3802288,31.8354372 L17.3124203,52.5264045 L0,52.5264045 L5.95897786,24.8158237 C2.63561841,20.9242309 0.38641908,16.1551915 0.762306501,10.8114119 C1.84545367,-4.58708095 23.3346399,-1.19960872 27.5147315,6.57222815 Z" id="Head-[skin]"></path>
                                    </g>
                                    <path d="M56.6000366,19.9206438 C54.3183097,19.5474049 48.1746595,19.2907927 47.0416607,19.2909584 C46.3176209,19.2909584 45.5329824,19.4559588 45.1041548,18.7928095 C44.7529798,18.249766 44.8816281,17.3313299 44.776822,16.7011475 C44.6551277,15.9690824 44.4822721,15.24646 44.3074297,14.52566 C43.8098903,12.4745854 43.0575381,10.52324 42.0048409,8.69117202 C40.029585,5.25399447 37.1359096,2.56163812 33.4827624,0.994962393 C29.4486375,-0.734891469 24.8836936,-1.13099189 20.5444223,-0.780117489 C15.9008324,-0.404724954 11.6973289,1.12434526 7.31302242,2.56329475 C3.13501676,3.93448805 -1.2410112,4.47421836 -5.61074748,3.8046082 C-10.0134323,3.13002814 -13.3400745,0.749781037 -17.0536549,-1.50936636 C-20.8553189,-3.82218859 -25.1998885,-5.33485816 -29.6941337,-4.98713136 C-33.8893587,-4.66243173 -37.7559263,-2.93456582 -41.2249591,-0.626382153 C-44.4706374,1.53320173 -47.14874,4.13146145 -48.6607297,7.78830824 C-50.2872942,11.721978 -50.285804,16.0398205 -47.6110128,19.5162602 C-43.7340143,24.5553997 -36.5364997,25.8585055 -30.5484775,25.728957 C-27.0849084,25.6542429 -23.6832628,25.0235636 -20.4132457,23.8763467 C-16.0522846,22.3462826 -12.2837348,19.7529927 -8.20391244,17.648906 C-6.28925534,16.661554 -4.31019131,15.8506333 -2.23575868,15.2665053 C-0.222752708,14.6994405 1.75995387,14.4393495 3.58255379,15.6523346 C5.5106221,16.9355608 7.23835013,18.1960911 9.44408015,18.9993914 C11.560071,19.770056 13.8013986,20.2011114 16.0558064,20.1837167 C20.4420997,20.1499215 24.765973,18.78668 29.0261016,17.8735451 C32.5001015,17.1290552 36.217159,16.3870503 39.7588772,17.1027148 C41.2367594,17.4014053 43.3954674,18.0180033 43.9292667,19.5500555 C34.9452465,21.1742163 31.4167821,32.2570762 33.9495138,40.3929556 C35.3164638,44.7841869 43.5333876,49.9174897 46.7282357,47.6089532 C48.7522639,46.1464288 47.5234708,44.2263993 46.7282357,42.9589111 C45.2053184,40.5316156 44.6842681,37.4136708 47.5022778,35.7237418 C49.9330181,34.266238 52.4887741,37.7274227 52.5371206,37.7236124 C53.2051975,37.6710972 58.9779626,34.4145416 62.9552927,29.662401 C66.8789435,29.894407 67.4742182,27.313748 66.5373272,25.2032539 C65.6004362,23.0927599 59.7526642,20.4366843 56.6000366,19.9206438 Z" id="hair" fill="#191847"></path>
                                </g>
                            </g>
                            <g id="Bottom/Skinny-Jeans-1" transform="translate(0.000000, 140.230310)">
                                <path d="M149.519491,-7.03773145 C135.760301,4.18438786 141.116057,102.725088 140.198248,103.964551 C139.790333,104.515424 117.969852,109.181181 74.7368052,117.961823 L76.6123649,125.590336 C127.19325,123.137451 153.955564,120.033815 156.899308,116.279428 C161.113906,110.904221 166.295251,80.8208188 172.443343,26.0292208 L149.519491,-7.03773145 Z" id="leg-[skin]" fill="#B28B67" transform="translate(123.590074, 59.276302) rotate(-55.000000) translate(-123.590074, -59.276302) "></path>
                                <path d="M149.519491,-7.03773145 C135.760301,4.18438786 141.116057,102.725088 140.198248,103.964551 C139.790333,104.515424 117.969852,109.181181 74.7368052,117.961823 L76.6123649,125.590336 C127.19325,123.137451 153.955564,120.033815 156.899308,116.279428 C161.113906,110.904221 166.295251,80.8208188 172.443343,26.0292208 L149.519491,-7.03773145 Z" id="shadow" fill-opacity="0.1" fill="#000000" transform="translate(123.590074, 59.276302) rotate(-55.000000) translate(-123.590074, -59.276302) "></path>
                                <path d="M82.039031,109.941964 L85.3412672,122.228568 C123.052763,126.606487 147.903794,121.272021 156.643379,112.952356 C162.469768,107.405913 167.664644,77.4043037 172.228006,22.947529 L147.70543,-12.0743388 C114.950219,12.6419497 134.587684,93.702505 133.752057,95.5557505 C132.91643,97.4089959 113.032786,98.8516925 82.039031,109.941964 Z" id="Pant" fill="#2F3676" transform="translate(127.133519, 55.861010) rotate(-55.000000) translate(-127.133519, -55.861010) "></path>
                                <g id="Group" transform="translate(139.136975, 120.363983)" fill="#E4E4E4">
                                    <g id="Right-[shoe]" transform="translate(22.001201, 14.390796) rotate(20.000000) translate(-22.001201, -14.390796) ">
                                        <path d="M1.81595376,18.5902162 C1.08621848,20.5831303 0.721350844,22.0868274 0.721350844,23.1013076 C0.721350844,24.3988437 0.938054884,26.2922717 1.37146296,28.7815915 C2.88048461,28.7815915 16.4423162,28.7815915 42.0569578,28.7815915 C43.1142296,25.2950667 42.503911,23.4128041 40.226002,23.1348038 C37.9480931,22.8568035 36.0557954,22.6057915 34.549109,22.3817678 L15.7779159,14.0344861 C15.3386054,13.839131 14.8241073,14.0368959 14.6287522,14.4762064 C14.6256249,14.483239 14.622591,14.4903128 14.6196513,14.4974259 L13.4627245,17.2967975 L13.4627245,17.2967975 C11.3539766,18.2782189 9.64039999,18.7689296 8.32199468,18.7689296 C7.30315875,18.7689296 5.91510428,18.3785417 4.15783127,17.5977658 L4.15783143,17.5977654 C3.27908809,17.20733 2.25021541,17.6031817 1.85977998,18.4819251 C1.84396399,18.5175217 1.82934703,18.5536391 1.81595376,18.5902162 Z" id="shoe"></path>
                                    </g>
                                </g>
                                <polygon id="leg-[skin]" fill="#B28B67" points="93.7756098 0 56.4486161 89.3862038 19.7619911 164.954705 28.4175533 164.954705 123.115609 0"></polygon>
                                <g id="Left-[shoe]" transform="translate(17.312420, 143.188418)" fill="#E4E4E4">
                                    <path d="M1.81595376,18.5902162 C1.08621848,20.5831303 0.721350844,22.0868274 0.721350844,23.1013076 C0.721350844,24.3988437 0.938054884,26.2922717 1.37146296,28.7815915 C2.88048461,28.7815915 16.4423162,28.7815915 42.0569578,28.7815915 C43.1142296,25.2950667 42.503911,23.4128041 40.226002,23.1348038 C37.9480931,22.8568035 36.0557954,22.6057915 34.549109,22.3817678 L15.7779159,14.0344861 C15.3386054,13.839131 14.8241073,14.0368959 14.6287522,14.4762064 C14.6256249,14.483239 14.622591,14.4903128 14.6196513,14.4974259 L13.4627245,17.2967975 L13.4627245,17.2967975 C11.3539766,18.2782189 9.64039999,18.7689296 8.32199468,18.7689296 C7.30315875,18.7689296 5.91510428,18.3785417 4.15783127,17.5977658 L4.15783143,17.5977654 C3.27908809,17.20733 2.25021541,17.6031817 1.85977998,18.4819251 C1.84396399,18.5175217 1.82934703,18.5536391 1.81595376,18.5902162 Z" id="shoe"></path>
                                </g>
                                <path d="M23.0749667,149.256217 L42.3077218,152.853916 C57.1784341,131.046094 119.412972,41.6267 126.236398,2.04505508e-14 L83.4199498,2.04505508e-14 C60.6330591,30.0918893 37.2498267,127.087651 23.0749667,149.256217 Z" id="Pant" fill="#5C63AB"></path>
                            </g>
                            <g id="Group" transform="translate(15.869719, 64.678632)">
                                <g id="Body/Long-Sleeve-1" transform="translate(92.332908, 67.276970) rotate(7.000000) translate(-92.332908, -67.276970) ">
                                    <path d="M37.1555433,59.0022626 L51.9372608,61.9277995 C37.071722,89.5618792 29.0996006,104.207958 28.0208965,105.866034 C25.5938124,109.596707 27.858331,116.433941 28.6948347,120.034476 C23.4470796,121.252974 25.516633,113.37429 18.8757002,115.019288 C12.8141648,116.520765 7.67471361,120.374091 2.02258005,115.177266 C1.32768344,114.538347 0.818986272,112.541267 3.18824081,111.516974 C9.0909179,108.965087 17.8116261,104.18673 19.2256897,102.331579 C21.154018,99.8017492 27.1306359,85.3586438 37.1555433,59.0022626 Z M183.358849,36.880133 L183.03508,37.3541551 C180.828465,40.601922 178.785918,43.9874279 179.671392,45.1189556 C180.600059,46.3056798 183.290204,44.9958594 184.352998,46.9257057 C185.061528,48.2122699 180.526911,49.7512694 170.749149,51.5427042 L151.173453,66.5137448 L142.827467,55.8485827 L168.965303,44.3986082 C173.544042,39.8474098 177.965467,36.3882885 182.229579,34.0212444 C183.504629,33.61633 185.682993,33.4940006 183.358849,36.880133 Z" id="Arms-[skin]" fill="#B28B67"></path>
                                    <path d="M88.93628,7.11509941 L95.057141,5.50831844 C109.737308,17.4202518 118.013097,48.3999734 127.397173,51.7754936 C136.269437,54.9669113 148.024839,50.099016 161.944126,43.6970086 L167.202698,53.1193586 C155.379377,68.351057 128.60655,82.6878951 116.737734,76.8788388 C97.7619644,67.5913652 90.2057475,29.1505933 88.93628,7.11509941 Z" id="Coat-Back" fill="#DB2721" transform="translate(128.069489, 41.854036) rotate(5.000000) translate(-128.069489, -41.854036) "></path>
                                    <path d="M64.921576,82.0275358 C89.9320764,82.0275358 108.329276,82.0275358 120.113176,82.0275358 C122.63515,82.0275358 122.159932,78.3950378 121.795365,76.5620595 C117.587825,55.4072736 101.163183,32.6034382 101.163183,2.49013314 L85.2433278,0 C72.0755621,21.1245418 67.5219205,47.1331299 64.921576,82.0275358 Z" id="Shirt" fill="#DDE3E9"></path>
                                    <path d="M90.5197191,-7.04750661e-14 C104.811501,48.595521 108.751492,80.9748115 102.339693,97.1378713 L102.339693,97.1378713 L52.6586116,97.1378713 C53.4447027,85.3098121 55.9654058,72.8011322 59.417917,60.6050688 C48.1665495,80.8516507 38.7087556,95.4273928 31.0450974,104.333269 L19.4764728,102.073065 C26.9284546,55.9734837 48.5083993,21.9491287 84.2163069,-1.4152934e-13 Z" id="Coat-Front" fill="#FF4133"></path>
                                </g>
                            </g>
                        </g>
                    </g>
                    <g id="Group" transform="translate(139.000000, 15.000000)">
                        <rect id="Palette" fill="#FF9B21" x="0" y="0.146419098" width="64.8880624" height="68.5029462" rx="32.4440312"></rect>
                        <text id="$" font-family="AvenirNext-DemiBold, Avenir Next" font-size="41.7861163" font-weight="500" fill="#FFFFFF">
                            <tspan x="20.2775195" y="47.6736705">$</tspan>
                        </text>
                    </g>
                </g>
            </g>
        </g>
    </g>
</svg>